<svg xmlns="http://www.w3.org/2000/svg" viewBox="0 0 738.37 499.99"><defs><style>.cls-1{fill:#2e8b57;}.cls-2{fill:#3fa9f5;}.cls-3{fill:#0071bc;}.cls-4{fill:#ff7bac;}.cls-5{fill:#c71585;}</style></defs><title>flower1</title><g id="Layer_2" data-name="Layer 2"><g id="Layer_6" data-name="Layer 6"><path class="cls-1" d="M428.4,472.38c.41,1.35.84,2.71,1.31,4.1C429.43,475.42,429,474,428.4,472.38Z"/><path class="cls-1" d="M653.88,252.32l-.74-.62a348.58,348.58,0,0,0,21.47-41.8c-20,9.92-38.25,16.11-54.26,18.64a254.85,254.85,0,0,0-63.68-25.46c-12.25-24.89-9.17-67,14.55-126-3.05,7.59-24.38,15.6-30.23,20.26a275.61,275.61,0,0,0-26.12,24c-13.71,14.2-26.37,30.52-39.38,46.25-8.87,10.73-18.11,21.61-27.51,25.23-3.67.13-7.33.29-11,.5-4.73-1.55-9.48-5.59-14.24-13C392.86,133.32,386.52,56.67,368,0c-4.21,36.27-1.87,71.55-23.78,94.91-16,17-37,17.8-55.5,15.46C251.42,105.66,214.26,75.72,177,76.69a13.21,13.21,0,0,0-3,.29c-4,1-6.92,8.5,1.18,27.71,8,18.87,24.24,43.64,16.62,69.12C186.18,192.68,170,195.92,158.35,196c-34,.09-73.52-26-83.9-81.53,5,45.94,15.36,91.78,31,132.17C66.83,265.82,29.38,293.53,0,336.4,125.44,297,195.21,332.77,127.2,440c3.75-5.92,30-12.16,37.19-15.8a331.5,331.5,0,0,0,32.13-18.66c10.68-7,20.84-14.67,30.91-22.46a188.48,188.48,0,0,0,49.66,10.83,257.55,257.55,0,0,0,56.3-1.85c18.29,34,26.95,75.27,43.82,108,5.17-28.18,2.33-55.59,29-73.8,10.55,17.88,18.8,36.61,22.19,46.19-7.94-25.82-6.58-43.24,1.43-56.28,14.61-3.47,30.37-3.29,44.91-2.13,45.9,3.67,91.63,27,137.43,26.25a26.83,26.83,0,0,0,3.7-.22c5-.79,8.52-6.63-1.45-21.6-9.8-14.71-29.83-34-20.45-53.87,6.94-14.71,26.87-17.24,41.18-17.26,41.86-.08,90.45,20.28,103.22,63.54C728.2,351.42,699.8,292.25,653.88,252.32Z"/><path class="cls-2" d="M316.81,296.83c-.24,3.36-.56,8.24-.85,14.15-.51,10.54-.77,15.82-.48,17.87,2,14.39,27.13,22.59,34.67,25.06,32.05,10.47,60.53,2.06,76.22-2.56a83.14,83.14,0,0,0,21.29-9.48c5.71-3.61,10.19-6.44,14.37-12,6.44-8.56,3.63-12.26,9.66-22.72.65-1.12,1.9-3.2,1.18-5.08s-2.48-1.76-6.64-5.16c-1.71-1.4-2.6-2.38-2.67-3.68,0-.73.43-1,.76-2.36a10.62,10.62,0,0,0,.27-2.79c0-1.65.39-2.77,1.23-5.57,1.88-6.26,2.82-9.39,3-11.11.27-2.46.55-5.43-1-8.4a13.37,13.37,0,0,0-3.41-4c-2.79-2.67-6.48-7.49-5.93-12.42.13-1.19.32-.6,1.32-4.21a40.46,40.46,0,0,0,1.55-8,17.32,17.32,0,0,0-.13-5.77,14,14,0,0,0-3.21-5.92c-7.08-8.31-19.66-16.87-21.16-17.88-6.21-4.19-8.41-5.35-10.25-6.22-4.31-2-7.85-3.72-12.82-3.93a22.5,22.5,0,0,0-12.32,2.75,21.86,21.86,0,0,0-8.39,8.61,6.06,6.06,0,0,1-1.82.51c-3.41.41-7.3-2.19-7.69-5-.14-1,.27-1.12.26-2.37,0-2.62-1.8-4.61-2.6-5.49-3.54-3.93-10.8-4.39-12.84-4.46-12.46-.44-21.92,6.54-25.08,9.15-.61.49-2.24,2.1-5.51,5.32-8.58,8.46-8.43,9-13.15,13.29-4,3.64-5.38,4.35-8.39,7.72a41.6,41.6,0,0,0-10.43,19.95,65.09,65.09,0,0,0-2.17,13.45A76,76,0,0,0,308,284a27.21,27.21,0,0,0,4.65,8.77,25,25,0,0,0,3.42,3.47Z"/><path class="cls-3" d="M338.34,312.23c-.5-1.47-20.54-8.35-22.2-4.71-30.06,65.79,154.28,71.13,157.94-2.58.74-14.82-25.43,27.2-46.53,30.95C337.47,360.76,364.2,327.84,338.34,312.23Z"/><path class="cls-3" d="M357.33,310.66c31.21,22.51,37.85,5.15,60.5-11.14,46.32-.08,35.63-29.2,46.91-39.8,8.15,5.5,3,16.16-.31,25.89C463.67,345.52,329.83,339.53,357.33,310.66Z"/><path class="cls-3" d="M344.58,299.31c.69-2.65-9-4-14.54-13.52-3.28-5.67-3.16-11.09-2.81-21.69.32-9.3.69-20.5,6.38-33.94,2.63-6.21,6.34-14.71,14.8-22.45,1.8-1.65,17-15.29,26-10.72,4.12,2.09,5.6,7.28,7.65,6.64,1.49-.47,2.15-3.66,1.54-6.13-1-3.8-4.91-5.68-6.38-6.38-10.11-4.79-25.29,0-35.73,8.68-2.64,2.19-1.1,1.42-8.42,8.93-12.92,13.27-16.18,14.11-20.67,20.67-5.25,7.68-6.65,15.13-7.65,20.41-.9,4.75-3.15,17.55,2.29,31.9,2.09,5.5,3.91,10.29,8.68,14.29C326.52,305,343.71,302.72,344.58,299.31Z"/><path class="cls-3" d="M373.16,212.05c-25.63,25.7-19.45,18.42-18,50-1.32,23.88,25.25,37.63,46.81,33.64,3.81,8.11-18,10-28.85,15.21C327.63,310.18,323.54,210.12,373.16,212.05Z"/><path class="cls-3" d="M431.16,284c24.58-30.7-3.83-78.14-36.71-70.69-3.09-.17-3.58-2-1.95-6.25,18.16-30,50.62,2.18,66,16.18C470.36,233.91,443.83,283,431.16,284Z"/><path class="cls-3" d="M405.51,247.93c-2.06,2.89-3.31,4.56-6.24,2.88-10.94-9.6,8.71-11.88,13.72-19.63,5.32-6.92-13.73-22.25-15.61-7.84-.63,3.3-1.54,2.53-2.89,1.57-7.84-12.39-13.75-10.71-23.72,2-14.34,13.13-8,37.35,7.87,43.94,18.94,2.23,45.84-43.36,48.3-21.21-2.89,9.85-46.23,48.39-59.07,17-17.21-12.95,2.2,45.61,55.35,9.05C443.49,260.22,431.33,214,405.51,247.93Zm-16.16-12c-1,.47-2.12,1.74-4.26,4.26-4.57,5.4-5.13,6.08-6.06,6.06-2.07,0-4.28-3.53-4.49-6.73-.38-6.08,6.34-13.09,12.8-12.34,5.59.65,9.6,7,8.75,8.3C395.48,236.44,392.66,234.44,389.35,235.94Z"/><path class="cls-4" d="M246.24,287.11c-2.21,2.55-5.43,6.23-9.4,10.61-7.1,7.82-10.64,11.73-12.3,13-11.61,8.74-35.16-3.22-42.24-6.81-30.06-15.25-44.26-41.34-52.08-55.7a82.77,82.77,0,0,1-8.35-21.75c-1.49-6.59-2.66-11.76-1.69-18.64,1.5-10.61,6.11-11.24,9.24-22.9.33-1.25.92-3.61,2.76-4.42s3,.5,8.34,1c2.2.22,3.52.16,4.49-.71.54-.49.41-1,1.13-2.21a10.45,10.45,0,0,1,1.78-2.16c1.16-1.18,1.69-2.24,3.07-4.81,3.1-5.76,4.65-8.64,5.73-10,1.56-1.93,3.45-4.23,6.63-5.26a13.68,13.68,0,0,1,5.23-.4c3.86.09,9.87-.71,13-4.59.74-.93.19-.64,2-3.9a39.64,39.64,0,0,1,4.53-6.73,17,17,0,0,1,4.18-4,13.91,13.91,0,0,1,6.46-1.92c10.87-.87,25.83,2,27.59,2.32,7.36,1.43,9.74,2.16,11.66,2.85,4.49,1.6,8.17,2.91,11.84,6.29A22.32,22.32,0,0,1,256.62,157a21.88,21.88,0,0,1-.15,12,6.35,6.35,0,0,0,.92,1.65c2.13,2.7,6.72,3.61,9,1.88.79-.6.6-1,1.49-1.86,1.86-1.85,4.53-2,5.73-2,5.28-.27,10.73,4.54,12.23,5.93,9.12,8.5,10.87,20.12,11.27,24.21.07.77.09,3.07.12,7.65.09,12-.42,12.35-.09,18.7.27,5.42.72,6.88.47,11.39A41.43,41.43,0,0,1,290.88,258a65.46,65.46,0,0,1-8,11,76.08,76.08,0,0,1-21.31,15.27,27.21,27.21,0,0,1-9.49,2.92,25.56,25.56,0,0,1-4.87,0Z"/><path class="cls-5" d="M220.13,282.78c1.39-.69,20.42,8.62,19,12.36-25.27,67.78-159.39-58.8-109.85-113.5,9.95-11-1.25,37.21,11,54.78C186.42,317.7,190.8,275.54,220.13,282.78Z"/><path class="cls-5" d="M207.81,268.25c-38-6.16-30.41-23.14-34.91-50.67-32.69-32.81-4.54-45.83-5-61.31-9.64-1.87-13.53,9.31-18.08,18.53C108,217.7,206.84,308.1,207.81,268.25Z"/><path class="cls-5" d="M224.84,269.23c1.39-2.36,9.21,3.57,19.85.72,6.32-1.69,10.08-5.6,17.32-13.35,6.35-6.8,14-15,19.49-28.51,2.53-6.25,5.92-14.88,5.41-26.34-.11-2.44-1.21-22.83-10.83-26C271.7,174.33,267,177,266,175c-.72-1.38,1.07-4.1,3.25-5.41,3.37-2,7.49-.54,9,0,10.53,3.76,17.87,17.89,19.13,31.4.31,3.42-.23,1.78-.37,12.27-.24,18.52,1.47,21.42,0,29.23-1.71,9.14-6,15.4-9,19.84-2.72,4-10.18,14.64-24.17,20.93-5.37,2.42-10,4.52-16.24,4C233.59,286,223.05,272.26,224.84,269.23Z"/><path class="cls-5" d="M266.34,187.31c0,36.3.73,26.79-22.62,48.05-15.94,17.82-44.46,8.75-56.87-9.31-8.44,3,5.69,19.78,9.63,31.15C229.15,288.9,302.79,221,266.34,187.31Z"/><path class="cls-5" d="M174.48,197.16c4.32-39.09,58-52.55,76-24,2.3,2.06,3.92,1.14,5.79-3,8.4-34.07-37.33-34.25-58.13-35.25C182.15,134,166.19,187.53,174.48,197.16Z"/><path class="cls-5" d="M186,196.91c11.73,63.44,66.87,35.76,45.53,32.74-31.25,13.1-34.64-44.79-29.73-53.8,17.4-13.92,4.19,37.33,19.17,49.15,15.9,6.6,37.48-6.08,36.62-25.51,1.92-16-1.07-21.38-15.37-18.16-1.64-.27-2.82-.37-.94-3.16,8.86-11.51-15.45-14.15-16.58-5.49-1.94,9,10.34,24.53-4.18,23.59-3.25-.89-3-3-2.38-6.46C223.83,147.57,182.55,171.65,186,196.91Zm47.6-9.23c.34-1.54,7.65-3.18,12.06.32,5.1,4,4.89,13.74.32,17.77-2.41,2.12-6.44,3-7.93,1.59-.67-.65-.59-1.52,0-8.57.27-3.29.4-5,0-6C236.72,189.37,233.31,188.78,233.55,187.68Z"/><path class="cls-4" d="M525.45,289.59c2.2,2.54,5.43,6.22,9.4,10.6,7.1,7.82,10.64,11.73,12.3,13,11.61,8.74,35.16-3.21,42.23-6.8,30.07-15.26,44.27-41.34,52.09-55.7a83,83,0,0,0,8.35-21.75c1.49-6.6,2.66-11.77,1.69-18.64-1.5-10.61-6.11-11.24-9.24-22.91-.34-1.24-.92-3.6-2.76-4.42s-3,.51-8.34,1.05c-2.2.22-3.52.16-4.49-.71-.55-.49-.41-1-1.13-2.22a10.61,10.61,0,0,0-1.78-2.15c-1.16-1.18-1.69-2.25-3.07-4.81-3.1-5.76-4.65-8.64-5.74-10-1.55-1.93-3.45-4.23-6.63-5.26a13.43,13.43,0,0,0-5.22-.4c-3.86.09-9.87-.72-13-4.59-.74-.93-.19-.65-2-3.91a40.58,40.58,0,0,0-4.54-6.73,17.15,17.15,0,0,0-4.17-4,14.19,14.19,0,0,0-6.46-1.92c-10.87-.87-25.83,2-27.6,2.32-7.35,1.43-9.73,2.17-11.65,2.85-4.49,1.6-8.18,2.92-11.84,6.29a22.42,22.42,0,0,0-6.76,10.66,21.89,21.89,0,0,0,.15,12,6.17,6.17,0,0,1-.92,1.64c-2.13,2.7-6.72,3.62-9,1.88-.79-.59-.61-1-1.49-1.85-1.87-1.85-4.53-2-5.73-2-5.28-.28-10.73,4.53-12.23,5.93-9.12,8.49-10.88,20.12-11.27,24.2-.07.78-.09,3.07-.12,7.66-.09,12.05.41,12.34.09,18.7-.27,5.42-.72,6.88-.47,11.39a41.49,41.49,0,0,0,6.73,21.48,64.76,64.76,0,0,0,8,11,76,76,0,0,0,21.31,15.28,27.36,27.36,0,0,0,9.49,2.91,25.6,25.6,0,0,0,4.86,0Z"/><path class="cls-5" d="M551.56,285.26c-1.39-.69-20.42,8.61-19,12.36,25.27,67.78,159.39-58.8,109.86-113.5-10-11,1.25,37.21-11,54.78C585.26,320.18,580.89,278,551.56,285.26Z"/><path class="cls-5" d="M563.88,270.72c38-6.15,30.4-23.13,34.91-50.66,32.69-32.81,4.54-45.84,5-61.31,9.64-1.87,13.52,9.31,18.08,18.53C663.72,220.18,564.85,310.57,563.88,270.72Z"/><path class="cls-5" d="M546.85,271.71c-1.4-2.36-9.21,3.56-19.85.72-6.33-1.69-10.08-5.6-17.32-13.35-6.36-6.8-14-15-19.49-28.51-2.53-6.25-5.92-14.88-5.41-26.35.11-2.43,1.21-22.83,10.82-26,4.39-1.44,9.11,1.19,10.11-.72.72-1.38-1.07-4.11-3.25-5.41-3.37-2-7.49-.55-9,0-10.54,3.75-17.88,17.88-19.13,31.39-.32,3.43.22,1.79.36,12.27.25,18.53-1.46,21.43,0,29.23,1.72,9.14,6,15.41,9,19.85,2.73,4,10.19,14.63,24.18,20.93,5.36,2.41,10,4.52,16.24,4C538.1,288.51,548.63,274.73,546.85,271.71Z"/><path class="cls-5" d="M505.35,189.79c0,36.3-.73,26.79,22.62,48.05,15.94,17.82,44.46,8.75,56.87-9.32,8.44,3-5.7,19.78-9.63,31.16C542.53,291.38,468.89,223.52,505.35,189.79Z"/><path class="cls-5" d="M597.21,199.63c-4.33-39.09-58-52.54-76-24-2.3,2.06-3.92,1.15-5.79-3-8.4-34.08,37.33-34.25,58.13-35.26C589.54,136.52,605.5,190,597.21,199.63Z"/><path class="cls-5" d="M553.59,192.29c.58,3.5.88,5.57-2.38,6.45-14.51.95-2.24-14.56-4.17-23.58-1.13-8.66-25.44-6-16.59,5.49,1.89,2.78.71,2.88-.93,3.15-14.3-3.22-17.29,2.16-15.37,18.17-.86,19.42,20.72,32.1,36.62,25.51,15-11.82,1.76-63.08,19.17-49.15,4.91,9,1.52,66.9-29.74,53.8-21.33,3,33.81,30.7,45.54-32.75C589.14,174.13,547.86,150,553.59,192.29Zm-19.9,3c-.4,1.06-.27,2.73,0,6,.59,7.05.66,7.93,0,8.57-1.49,1.45-5.53.54-7.93-1.58-4.57-4-4.78-13.74.31-17.77,4.42-3.5,11.73-1.87,12.06-.32C538.37,191.26,535,191.84,533.69,195.24Z"/></g></g></svg>