<svg xmlns="http://www.w3.org/2000/svg" viewBox="0 0 534.87 224.24"><defs><style>.cls-1{fill:#3fa9f5;}.cls-2{fill:#0071bc;}.cls-3{fill:#ff7bac;}.cls-4{fill:#c71585;}</style></defs><title>flower2</title><g id="Layer_2" data-name="Layer 2"><g id="Layer_6" data-name="Layer 6"><path class="cls-1" d="M198.4,162.14c-.24,3.35-.56,8.24-.85,14.14-.51,10.55-.77,15.82-.48,17.88,2,14.38,27.13,22.59,34.67,25.05,32.05,10.47,60.53,2.07,76.22-2.56a83.08,83.08,0,0,0,21.29-9.47c5.71-3.61,10.19-6.44,14.37-12,6.44-8.56,3.63-12.26,9.66-22.73.65-1.12,1.9-3.2,1.18-5.07s-2.48-1.77-6.64-5.16c-1.71-1.4-2.6-2.38-2.67-3.68,0-.73.43-1,.76-2.36a10.65,10.65,0,0,0,.27-2.79c0-1.65.39-2.78,1.23-5.57,1.88-6.27,2.82-9.4,3-11.11.27-2.46.55-5.43-1-8.41a13.49,13.49,0,0,0-3.41-4c-2.79-2.67-6.48-7.48-5.93-12.42.13-1.18.32-.59,1.32-4.2a40.76,40.76,0,0,0,1.55-8,17.3,17.3,0,0,0-.13-5.77A14.14,14.14,0,0,0,339.63,88c-7.08-8.3-19.66-16.86-21.16-17.87-6.21-4.19-8.41-5.35-10.25-6.23-4.31-2-7.85-3.72-12.82-3.92a22.33,22.33,0,0,0-12.32,2.75,21.86,21.86,0,0,0-8.39,8.61,6.37,6.37,0,0,1-1.82.51c-3.41.4-7.3-2.19-7.69-5-.14-1,.27-1.11.26-2.36,0-2.63-1.8-4.61-2.6-5.5C259.3,55.06,252,54.61,250,54.53c-12.46-.44-21.92,6.54-25.08,9.15-.61.5-2.24,2.11-5.51,5.33-8.58,8.46-8.43,9-13.15,13.29-4,3.64-5.38,4.35-8.39,7.71A41.6,41.6,0,0,0,187.44,110a65.15,65.15,0,0,0-2.17,13.46,76,76,0,0,0,4.27,25.87,27.42,27.42,0,0,0,4.65,8.77,24.82,24.82,0,0,0,3.42,3.46Z"/><path class="cls-2" d="M219.93,177.53c-.5-1.46-20.54-8.34-22.2-4.71C167.67,238.62,352,244,355.67,170.25c.74-14.82-25.43,27.19-46.53,30.94C219.06,226.06,245.79,193.15,219.93,177.53Z"/><path class="cls-2" d="M238.92,176c31.21,22.51,37.85,5.14,60.5-11.14,46.32-.09,35.63-29.2,46.91-39.8,8.15,5.5,3,16.15-.31,25.89C345.26,210.83,211.42,204.83,238.92,176Z"/><path class="cls-2" d="M226.17,164.62c.69-2.65-9-4-14.54-13.52-3.28-5.67-3.16-11.09-2.81-21.69.32-9.3.7-20.51,6.38-33.94,2.63-6.21,6.34-14.71,14.8-22.46,1.8-1.64,17-15.28,26-10.71,4.12,2.08,5.6,7.27,7.65,6.63,1.49-.47,2.16-3.66,1.54-6.12-1-3.81-4.91-5.68-6.38-6.38-10.11-4.8-25.29,0-35.73,8.67-2.64,2.2-1.1,1.42-8.42,8.93C201.77,87.31,198.51,88.15,194,94.7c-5.25,7.68-6.65,15.13-7.65,20.42-.9,4.74-3.15,17.55,2.3,31.89,2.08,5.5,3.9,10.3,8.67,14.29C208.11,170.32,225.3,168,226.17,164.62Z"/><path class="cls-2" d="M254.75,77.35c-25.63,25.7-19.45,18.43-18,50C235.45,151.2,262,165,283.58,161c3.81,8.12-18,10-28.85,15.22C209.22,175.48,205.13,75.43,254.75,77.35Z"/><path class="cls-2" d="M312.75,149.27c24.58-30.7-3.83-78.15-36.71-70.7-3.09-.17-3.58-2-2-6.24,18.16-30,50.62,2.17,66,16.17C352,99.22,325.42,148.33,312.75,149.27Z"/><path class="cls-2" d="M287.1,113.24c-2.06,2.88-3.31,4.55-6.24,2.88-10.94-9.6,8.71-11.89,13.72-19.63,5.32-6.93-13.73-22.25-15.61-7.85-.63,3.31-1.54,2.54-2.89,1.57-7.84-12.39-13.75-10.7-23.72,2-14.34,13.12-8.05,37.35,7.87,43.93,18.94,2.23,45.84-43.35,48.3-21.2-2.89,9.84-46.23,48.38-59.07,17-17.21-13,2.2,45.61,55.35,9C325.08,125.53,312.92,79.31,287.1,113.24Zm-16.15-12c-1.05.48-2.13,1.75-4.27,4.27-4.57,5.4-5.13,6.07-6.06,6.06-2.07,0-4.28-3.53-4.49-6.73-.38-6.08,6.34-13.1,12.8-12.35,5.59.65,9.6,7,8.75,8.31C277.07,101.74,274.25,99.75,271,101.24Z"/><path class="cls-3" d="M127.83,152.42c-2.21,2.54-5.43,6.22-9.4,10.6-7.1,7.82-10.64,11.73-12.3,13-11.61,8.74-35.16-3.21-42.24-6.8-30.06-15.26-44.26-41.34-52.08-55.7A83,83,0,0,1,3.46,91.75C2,85.15.8,80,1.77,73.11,3.27,62.5,7.88,61.87,11,50.2c.33-1.24.92-3.6,2.76-4.42s3,.51,8.34,1c2.2.22,3.52.16,4.49-.72.54-.48.41-1,1.13-2.21a10.61,10.61,0,0,1,1.78-2.15c1.16-1.18,1.69-2.25,3.07-4.81,3.1-5.76,4.65-8.64,5.73-10,1.56-1.93,3.45-4.23,6.63-5.26a13.48,13.48,0,0,1,5.23-.4c3.86.09,9.87-.72,13-4.59.74-.93.19-.65,2-3.91a40.45,40.45,0,0,1,4.53-6.73,17.36,17.36,0,0,1,4.18-4A14.16,14.16,0,0,1,80.36.16c10.87-.87,25.83,2,27.59,2.32,7.36,1.43,9.74,2.17,11.66,2.85,4.49,1.6,8.18,2.92,11.84,6.29a22.42,22.42,0,0,1,6.76,10.66,21.89,21.89,0,0,1-.15,12,6.17,6.17,0,0,0,.92,1.64c2.13,2.7,6.72,3.62,9,1.88.79-.59.6-1,1.49-1.85,1.86-1.85,4.53-2,5.73-2,5.28-.28,10.73,4.53,12.23,5.93,9.12,8.49,10.87,20.12,11.27,24.2.07.78.09,3.07.12,7.66.09,12.05-.42,12.34-.09,18.7.27,5.42.72,6.88.47,11.39a45.84,45.84,0,0,1-1,8,45.61,45.61,0,0,1-5.71,13.46,65.21,65.21,0,0,1-8,11,76.22,76.22,0,0,1-21.31,15.28,27.36,27.36,0,0,1-9.49,2.91,24.76,24.76,0,0,1-4.87,0Z"/><path class="cls-4" d="M101.72,148.09c1.39-.69,20.42,8.61,19,12.36C95.47,228.23-38.65,101.65,10.89,47c10-11-1.25,37.21,11,54.78C68,183,72.39,140.84,101.72,148.09Z"/><path class="cls-4" d="M89.4,133.55c-38-6.15-30.4-23.13-34.91-50.66C21.8,50.08,50,37.05,49.46,21.58c-9.64-1.87-13.53,9.31-18.08,18.53C-10.44,83,88.43,173.4,89.4,133.55Z"/><path class="cls-4" d="M106.43,134.54c1.39-2.36,9.21,3.56,19.85.72,6.32-1.69,10.08-5.6,17.32-13.35,6.35-6.8,14-15,19.49-28.51,2.53-6.25,5.92-14.88,5.41-26.35-.11-2.43-1.21-22.83-10.83-26-4.38-1.44-9.1,1.19-10.1-.72-.72-1.38,1.07-4.11,3.25-5.41,3.37-2,7.49-.55,9,0,10.53,3.75,17.87,17.88,19.13,31.39.31,3.43-.23,1.79-.37,12.27-.24,18.53,1.47,21.43,0,29.23-1.71,9.14-6,15.41-9,19.85-2.72,4-10.18,14.63-24.17,20.93-5.37,2.41-10,4.52-16.24,4C115.18,151.34,104.64,137.56,106.43,134.54Z"/><path class="cls-4" d="M147.93,52.62c-.05,36.3.73,26.79-22.62,48.05-15.94,17.82-44.46,8.75-56.87-9.32-8.44,3,5.69,19.78,9.63,31.16C110.74,154.21,184.38,86.35,147.93,52.62Z"/><path class="cls-4" d="M56.07,62.46c4.32-39.09,58-52.55,76-24,2.3,2.06,3.92,1.15,5.79-3C146.21,1.31,100.48,1.14,79.68.13,63.74-.65,47.78,52.84,56.07,62.46Z"/><path class="cls-4" d="M67.54,62.21C79.27,125.66,134.41,98,113.07,95c-31.25,13.1-34.64-44.8-29.73-53.8,17.4-13.93,4.19,37.33,19.17,49.15,15.9,6.59,37.48-6.09,36.62-25.51,1.92-16-1.07-21.39-15.37-18.17-1.64-.27-2.82-.37-.94-3.15C131.68,32,107.37,29.33,106.24,38c-1.94,9,10.34,24.53-4.18,23.58-3.25-.88-3-3-2.38-6.45C105.42,12.87,64.14,37,67.54,62.21ZM115.15,53c.33-1.55,7.64-3.18,12,.32,5.1,4,4.89,13.74.32,17.77-2.41,2.12-6.44,3-7.93,1.58-.67-.64-.59-1.52,0-8.57.27-3.29.4-5,0-6C118.31,54.67,114.9,54.09,115.15,53Z"/><path class="cls-3" d="M407,154.9c2.2,2.54,5.43,6.22,9.4,10.6,7.1,7.82,10.64,11.73,12.3,13,11.61,8.74,35.16-3.21,42.23-6.8C501,156.42,515.24,130.34,523.06,116a82.77,82.77,0,0,0,8.35-21.75c1.49-6.59,2.66-11.76,1.69-18.64-1.5-10.6-6.11-11.23-9.24-22.9-.34-1.25-.92-3.61-2.76-4.42s-3,.51-8.34,1c-2.2.22-3.52.16-4.49-.71-.55-.49-.41-1-1.13-2.21a10.74,10.74,0,0,0-1.78-2.16c-1.16-1.17-1.69-2.24-3.07-4.81-3.1-5.76-4.65-8.63-5.74-10-1.55-1.93-3.45-4.23-6.63-5.25a13.66,13.66,0,0,0-5.22-.41c-3.86.09-9.87-.71-13-4.58-.74-.93-.19-.65-2-3.91a39.77,39.77,0,0,0-4.54-6.73,17,17,0,0,0-4.17-4,14,14,0,0,0-6.46-1.92c-10.87-.87-25.83,2-27.6,2.32-7.35,1.43-9.73,2.16-11.65,2.85-4.49,1.6-8.18,2.91-11.84,6.29a22.38,22.38,0,0,0-6.76,10.65,21.92,21.92,0,0,0,.15,12,6.32,6.32,0,0,1-.92,1.64c-2.13,2.7-6.72,3.61-9,1.88-.79-.6-.61-1-1.49-1.86-1.87-1.85-4.53-2-5.73-2-5.28-.27-10.73,4.54-12.23,5.93-9.12,8.5-10.88,20.12-11.27,24.21-.07.77-.09,3.07-.12,7.65-.09,12,.41,12.35.09,18.7-.27,5.43-.72,6.88-.47,11.39a45.93,45.93,0,0,0,1,8,45.2,45.2,0,0,0,5.71,13.46,65.66,65.66,0,0,0,8,11,76,76,0,0,0,21.31,15.28,27.36,27.36,0,0,0,9.49,2.91,24.65,24.65,0,0,0,4.86,0Z"/><path class="cls-4" d="M433.15,150.56c-1.39-.69-20.42,8.62-19,12.36C439.39,230.7,573.51,104.13,524,49.42c-10-11,1.25,37.21-11,54.79C466.85,185.48,462.48,143.32,433.15,150.56Z"/><path class="cls-4" d="M445.47,136c38-6.16,30.4-23.13,34.91-50.67,32.69-32.81,4.54-45.83,5-61.31,9.64-1.87,13.52,9.32,18.08,18.53C545.31,85.48,446.44,175.88,445.47,136Z"/><path class="cls-4" d="M428.44,137c-1.4-2.35-9.21,3.57-19.85.72-6.33-1.69-10.08-5.6-17.32-13.35-6.36-6.8-14-15-19.49-28.51-2.53-6.25-5.92-14.88-5.41-26.34.11-2.43,1.21-22.83,10.82-26,4.39-1.44,9.11,1.18,10.11-.72.72-1.39-1.07-4.11-3.25-5.42-3.37-2-7.49-.54-9,0-10.54,3.76-17.88,17.89-19.13,31.4-.32,3.42.22,1.79.36,12.27.25,18.52-1.46,21.42,0,29.23,1.72,9.14,6,15.4,9,19.84,2.73,4,10.19,14.64,24.18,20.93,5.36,2.42,10.05,4.52,16.24,4C419.69,153.82,430.22,140,428.44,137Z"/><path class="cls-4" d="M386.94,55.1c0,36.29-.73,26.78,22.62,48C425.5,121,454,111.89,466.43,93.83c8.44,3-5.7,19.78-9.63,31.15C424.13,156.68,350.49,88.82,386.94,55.1Z"/><path class="cls-4" d="M478.8,64.94c-4.33-39.09-58-52.55-75.95-24-2.3,2.06-3.92,1.15-5.79-3-8.4-34.08,37.33-34.26,58.13-35.26C471.13,1.83,487.09,55.32,478.8,64.94Z"/><path class="cls-4" d="M435.18,57.59c.58,3.51.88,5.57-2.38,6.46-14.51.94-2.24-14.57-4.17-23.58-1.13-8.67-25.44-6-16.59,5.49,1.89,2.78.71,2.88-.93,3.15-14.3-3.22-17.29,2.15-15.37,18.17-.86,19.42,20.72,32.1,36.62,25.5,15-11.82,1.76-63.07,19.17-49.15,4.91,9,1.52,66.9-29.74,53.8-21.33,3,33.81,30.7,45.54-32.74C470.73,39.43,429.45,15.35,435.18,57.59Zm-19.9,2.95c-.4,1.07-.27,2.74,0,6,.59,7.05.66,7.93,0,8.57-1.49,1.44-5.53.53-7.93-1.59-4.57-4-4.78-13.74.31-17.77,4.42-3.49,11.73-1.86,12.06-.32C420,56.56,416.55,57.15,415.28,60.54Z"/></g></g></svg>