<svg xmlns="http://www.w3.org/2000/svg" viewBox="0 0 144.98 429.71"><defs><style>.cls-1,.cls-2,.cls-3{fill:none;stroke:#2e8b57;stroke-miterlimit:10;}.cls-2{stroke-linecap:round;stroke-width:3px;}.cls-3{stroke-width:2px;}.cls-4{fill:#2e8b57;}.cls-5{fill:#556b31;}</style></defs><title>vine1</title><g id="Layer_2" data-name="Layer 2"><g id="Layer_4" data-name="Layer 4"><line class="cls-1" x1="122.04" y1="309.12" x2="115.17" y2="301.5"/><path class="cls-2" d="M86,1.5c19.61,6,37.61,44.09,13.33,58.28-39.82,12.23-46,42.14-50.11,64.45C40,223.35,116.13,259.34,114.92,299.1c5.69,74.41-48.25,142-113.42,79.9"/><polyline class="cls-3" points="47.78 189.07 53.62 180.16 60.83 180.16"/><path class="cls-4" d="M48.51,149.28a39.06,39.06,0,0,1-.74,10.4,27.15,27.15,0,0,1-7.42,14.16,36.1,36.1,0,0,1-17.2,9.89,30.24,30.24,0,0,1,0-13c3.17-14.41,16.19-21.11,18.16-22.09,1.55-.64,3.3-1.73,4.94-2.06,2.15-.43,1.66-.73,2.12,1.51C48.4,148.47,48.46,148.87,48.51,149.28Z"/><path class="cls-5" d="M23.15,183.73q1.22-2.17,2.49-4.41c.66-1.15,1.32-2.28,2-3.4,0,0,6.41-10.81,13.46-20.59,2.52-3.49,5-6.67,5-6.67l1.83-2.32a.82.82,0,0,0-.35-.06l-.17,0c-.28.08-.67.12-1.25.27a17.3,17.3,0,0,0-2.26.82c-.77.33-.64.33-2.06,1-.44.2-.68.3-1.09.51s-.68.36-1.32.73-1.3.76-2.26,1.42-1.69,1.24-2.66,2c-.68.55-1.05.84-1.57,1.3-1,.93-1.77,1.7-2.2,2.16-.95,1-1.62,1.87-1.89,2.21-.73.93-1.25,1.69-1.46,2a29.57,29.57,0,0,0-1.92,3.31c-.48,1-.8,1.74-1,2.2s-.37,1-.48,1.31c-.21.62-.48,1.48-.74,2.51-.11.47-.25,1.11-.39,1.87s-.26,1.61-.35,2.8c0,.5-.09,1.39-.08,2.51a29.53,29.53,0,0,0,.26,3.75c.11.83.23,1.54.34,2.06Z"/><path class="cls-4" d="M49.74,189.61a54.93,54.93,0,0,1-1.18,11.15,37,37,0,0,1-6.9,15.56,34.53,34.53,0,0,1-14.72,11.54,41.87,41.87,0,0,1,.68-13.92,41.3,41.3,0,0,1,16.19-24.62A24.82,24.82,0,0,1,48,186.84c1.8-.58,1.41-.87,1.67,1.49C49.7,188.74,49.73,189.17,49.74,189.61Z"/><path class="cls-5" d="M26.94,227.86c.74-1.6,1.51-3.22,2.29-4.86.61-1.26,1.22-2.51,1.83-3.74,0,0,5.89-11.93,12.24-22.78,2.27-3.87,4.48-7.4,4.48-7.4l1.63-2.58a.45.45,0,0,0-.28-.05l-.14,0c-.23.1-.56.17-1,.36a15.08,15.08,0,0,0-1.91,1c-.66.4-.55.39-1.75,1.17-.38.24-.58.37-.94.62s-.57.41-1.12.85-1.11.88-1.94,1.64-1.46,1.42-2.3,2.31c-.6.62-.92,1-1.37,1.47-.91,1.05-1.55,1.92-1.93,2.44-.84,1.15-1.44,2.08-1.68,2.46-.66,1-1.12,1.88-1.32,2.24-.88,1.63-1.48,3-1.76,3.65-.45,1.05-.76,1.91-.94,2.41s-.36,1.08-.47,1.43c-.21.67-.48,1.6-.75,2.73-.12.51-.27,1.19-.42,2s-.31,1.73-.45,3c-.06.54-.15,1.49-.21,2.69,0,.78-.08,2.21,0,4,0,.89.11,1.63.16,2.18Z"/><path class="cls-4" d="M66.52,215.6a52.47,52.47,0,0,1,0,12.14,35.65,35.65,0,0,1-6.34,17.37,38.86,38.86,0,0,1-16.45,13.7,40.12,40.12,0,0,1-1.05-15.07c2.07-17.1,14.59-26.56,16.48-27.94,1.51-1,3.18-2.45,4.79-3,2.12-.77,1.61-1.06,2.23,1.47C66.34,214.67,66.44,215.13,66.52,215.6Z"/><path class="cls-5" d="M43.78,258.81q1-2.69,2.14-5.43c.58-1.42,1.16-2.82,1.73-4.2,0,0,5.6-13.36,11.91-25.61,2.25-4.37,4.48-8.38,4.48-8.38.68-1.22,1.26-2.22,1.65-2.92a.75.75,0,0,0-.35,0l-.16.05c-.28.13-.67.23-1.23.48A18.55,18.55,0,0,0,61.74,214c-.74.49-.61.47-2,1.41-.43.3-.66.45-1.06.75s-.65.5-1.26,1-1.24,1.05-2.15,1.94-1.6,1.66-2.51,2.68c-.64.73-1,1.12-1.47,1.72-1,1.2-1.64,2.19-2,2.79-.87,1.31-1.48,2.37-1.72,2.8-.66,1.17-1.12,2.12-1.31,2.53a38.09,38.09,0,0,0-1.67,4.08c-.4,1.17-.67,2.13-.82,2.68s-.3,1.19-.38,1.58c-.17.75-.37,1.77-.55,3-.08.56-.17,1.32-.24,2.21s-.14,1.9-.14,3.29c0,.59,0,1.63.1,2.93a42.91,42.91,0,0,0,.55,4.3c.17,1,.35,1.75.5,2.34Z"/><path class="cls-4" d="M89.68,249.09a40.6,40.6,0,0,1,2.74,10.3,28.22,28.22,0,0,1-2.31,16.16,36.47,36.47,0,0,1-13,15.29,31.55,31.55,0,0,1-4.36-12.56c-1.78-15,8.3-25.8,9.84-27.4,1.25-1.14,2.55-2.78,4-3.64,1.89-1.13,1.33-1.26,2.5.75C89.3,248.34,89.5,248.71,89.68,249.09Z"/><path class="cls-5" d="M77.13,290.84c.28-1.67.57-3.37.89-5.09.24-1.33.49-2.65.75-3.95,0,0,2.48-12.59,5.91-24.39,1.22-4.21,2.5-8.11,2.5-8.11.39-1.19.73-2.17,1-2.85a.8.8,0,0,0-.35.06.84.84,0,0,0-.15.08c-.24.17-.6.34-1.09.68a18.57,18.57,0,0,0-1.87,1.54c-.62.58-.5.54-1.62,1.64-.35.35-.54.53-.86.87s-.53.57-1,1.14-1,1.17-1.66,2.13-1.18,1.76-1.84,2.83c-.47.76-.72,1.17-1,1.78-.68,1.25-1.11,2.23-1.37,2.83-.56,1.3-.91,2.34-1,2.76-.39,1.14-.62,2-.72,2.44a32,32,0,0,0-.72,3.84c-.13,1.08-.18,1.95-.2,2.45s0,1.08,0,1.43c0,.67,0,1.59.14,2.68,0,.49.12,1.15.25,1.93a28,28,0,0,0,.59,2.83c.13.5.38,1.37.75,2.45a33,33,0,0,0,1.49,3.53c.38.78.73,1.41,1,1.88Z"/><path class="cls-4" d="M115.82,292.49a40.26,40.26,0,0,1-.79,10.62,28.23,28.23,0,0,1-7.49,14.51,36.64,36.64,0,0,1-17.28,10.19,31.55,31.55,0,0,1,0-13.3c3.25-14.74,16.32-21.65,18.3-22.65,1.56-.67,3.32-1.79,5-2.13,2.16-.44,1.67-.75,2.12,1.53Q115.74,291.86,115.82,292.49Z"/><path class="cls-5" d="M90.26,327.81q1.21-2.24,2.51-4.52,1-1.77,2-3.48s6.48-11.08,13.59-21.11c2.53-3.57,5-6.84,5-6.84.76-1,1.4-1.81,1.84-2.37a.82.82,0,0,0-.35-.06.4.4,0,0,0-.16,0c-.28.08-.68.12-1.26.28a20.08,20.08,0,0,0-2.27.84c-.77.35-.64.35-2.06,1-.45.22-.69.32-1.11.54s-.68.36-1.32.75-1.3.78-2.27,1.46-1.7,1.27-2.67,2.07c-.69.57-1.06.87-1.58,1.34A29.33,29.33,0,0,0,98,300c-1,1-1.64,1.91-1.91,2.26-.73,1-1.25,1.74-1.47,2.07a30.79,30.79,0,0,0-1.94,3.39c-.48,1-.81,1.79-1,2.25s-.38,1-.49,1.35c-.22.63-.49,1.51-.75,2.57-.11.48-.26,1.13-.4,1.91s-.26,1.64-.36,2.86c0,.52-.1,1.43-.1,2.57A32.21,32.21,0,0,0,89.8,325c.1.86.23,1.57.33,2.11Z"/><path class="cls-4" d="M118.72,309a40.26,40.26,0,0,0,.78,10.62,28.21,28.21,0,0,0,7.5,14.51,36.46,36.46,0,0,0,17.27,10.18,31.55,31.55,0,0,0,0-13.3C141,316.3,128,309.4,126,308.4c-1.56-.67-3.32-1.79-5-2.13-2.16-.45-1.67-.75-2.12,1.53A11.36,11.36,0,0,0,118.72,309Z"/><path class="cls-5" d="M144.27,344.34c-.81-1.49-1.64-3-2.51-4.51-.66-1.18-1.33-2.34-2-3.49,0,0-6.48-11.08-13.59-21.1-2.53-3.58-5-6.84-5-6.84L119.3,306a.82.82,0,0,1,.35-.06l.17,0c.28.08.67.13,1.25.29a18.59,18.59,0,0,1,2.28.84c.77.34.64.34,2.06,1,.45.21.69.32,1.1.54s.68.36,1.33.74,1.29.79,2.26,1.47,1.7,1.27,2.68,2.07c.68.56,1.06.87,1.58,1.33,1,1,1.77,1.75,2.21,2.22,1,1.05,1.63,1.92,1.9,2.26.74,1,1.26,1.74,1.48,2.08a31.56,31.56,0,0,1,1.94,3.39c.48,1,.81,1.78,1,2.25s.38,1,.5,1.34c.21.64.49,1.51.74,2.58.12.47.27,1.13.4,1.9s.27,1.65.37,2.87c0,.51.1,1.42.09,2.57a31.75,31.75,0,0,1-.24,3.82c-.11.85-.23,1.57-.33,2.1Z"/><path class="cls-4" d="M113.93,337.83a40.34,40.34,0,0,0,.79,10.63A28.27,28.27,0,0,0,122.21,363a36.54,36.54,0,0,0,17.28,10.18,31.55,31.55,0,0,0,0-13.3c-3.25-14.74-16.32-21.64-18.3-22.65-1.56-.67-3.32-1.79-5-2.13-2.16-.44-1.67-.75-2.12,1.53Q114,337.2,113.93,337.83Z"/><path class="cls-5" d="M139.49,373.15q-1.22-2.23-2.51-4.52-1-1.77-2-3.48s-6.48-11.08-13.59-21.11c-2.53-3.57-5-6.83-5-6.83-.76-1-1.4-1.82-1.84-2.38a.82.82,0,0,1,.35-.06l.16,0c.28.08.68.13,1.26.28a17.63,17.63,0,0,1,2.27.85c.77.34.64.34,2.06,1l1.11.53c.28.15.68.37,1.32.75s1.3.78,2.27,1.46S127,341,128,341.76c.69.57,1.06.87,1.58,1.34,1.05.95,1.78,1.75,2.21,2.22,1,1.05,1.64,1.91,1.91,2.26.73,1,1.25,1.74,1.47,2.07A30.79,30.79,0,0,1,137.1,353c.48,1,.81,1.79,1,2.26s.38,1,.49,1.34c.22.63.49,1.51.75,2.57.11.48.26,1.13.4,1.91s.26,1.65.36,2.86c0,.52.1,1.43.1,2.57a32.46,32.46,0,0,1-.25,3.83c-.1.85-.23,1.57-.33,2.1Z"/><path class="cls-4" d="M105.55,361.22a32.16,32.16,0,0,0-1.62,8.4,22.72,22.72,0,0,0,2.77,12.81A29.4,29.4,0,0,0,118,393.94a25.42,25.42,0,0,0,2.78-10.31c.57-12.1-8.11-20.19-9.44-21.38a23.41,23.41,0,0,0-3.39-2.69c-1.58-.79-1.14-.93-2,.75A8.34,8.34,0,0,0,105.55,361.22Z"/><path class="cls-5" d="M118,393.94c-.32-1.33-.65-2.67-1-4-.27-1.05-.55-2.09-.82-3.12,0,0-2.71-9.94-6.12-19.2-1.21-3.3-2.46-6.35-2.46-6.35-.38-.93-.71-1.7-.93-2.22a.71.71,0,0,1,.28,0,.3.3,0,0,1,.12.06c.2.12.5.24.92.48a14.58,14.58,0,0,1,1.58,1.13c.53.43.43.4,1.39,1.22.3.26.46.39.74.65s.45.42.87.86.84.87,1.45,1.6,1,1.35,1.64,2.17c.41.58.64.89.94,1.36a22.53,22.53,0,0,1,1.25,2.19c.53,1,.87,1.82,1,2.15.37.89.61,1.61.71,1.91a27.81,27.81,0,0,1,.79,3c.17.86.25,1.56.3,2s.08.86.1,1.14c0,.54.06,1.28,0,2.15,0,.4,0,.93-.09,1.57s-.14,1.33-.32,2.29c-.07.41-.22,1.12-.46,2a26.34,26.34,0,0,1-1,2.91c-.26.64-.5,1.17-.69,1.56Z"/><path class="cls-4" d="M90.29,385.35a41.7,41.7,0,0,0-3.71,6.43,27.88,27.88,0,0,0-2.82,10.87A22.38,22.38,0,0,0,86,414.17a32.15,32.15,0,0,0,5-7.74,29.61,29.61,0,0,0,2.08-19.1,15.5,15.5,0,0,0-.93-2.84c-.59-1-.31-1-1.32.2C90.64,384.89,90.47,385.11,90.29,385.35Z"/><path class="cls-5" d="M86,414.17c.27-1.13.54-2.28.81-3.44.21-.9.41-1.79.61-2.68,0,0,1.88-8.54,3.16-16.68.45-2.9.8-5.6.8-5.6.11-.83.19-1.51.25-2a.26.26,0,0,1,.14.08.5.5,0,0,1,0,.07c.07.14.19.29.33.57a8.76,8.76,0,0,1,.48,1.23c.14.45.1.41.34,1.26.08.27.12.41.19.67s.1.43.18.86.16.88.25,1.59.11,1.29.16,2.07c0,.55,0,.85,0,1.29,0,.89,0,1.59-.06,2-.06.92-.14,1.64-.18,1.93-.1.79-.21,1.42-.26,1.68-.22,1.19-.46,2.13-.59,2.6-.2.73-.39,1.3-.5,1.64l-.33.94c-.16.43-.4,1-.7,1.74-.14.31-.34.74-.58,1.23s-.52,1.05-.95,1.79c-.18.31-.5.86-.93,1.52-.28.43-.8,1.22-1.52,2.15-.36.46-.67.84-.9,1.11Z"/><path class="cls-4" d="M69.51,399.84a41.74,41.74,0,0,0-6,5.65,28.43,28.43,0,0,0-6.21,10.82,24.92,24.92,0,0,0-.67,13.4,32.72,32.72,0,0,0,7.8-6.6A31.33,31.33,0,0,0,72.11,403a17.47,17.47,0,0,0-.28-3.45c-.4-1.26-.07-1.18-1.55-.26C70,399.48,69.77,399.65,69.51,399.84Z"/><path class="cls-5" d="M56.64,429.71c.62-1.13,1.25-2.28,1.88-3.45l1.43-2.7s4.51-8.63,8.2-17c1.32-3,2.47-5.82,2.47-5.82.35-.86.63-1.57.83-2.07a.46.46,0,0,1,.14.14.33.33,0,0,1,0,.1c0,.17.14.39.22.74a11.24,11.24,0,0,1,.21,1.52c0,.54,0,.48,0,1.5,0,.32,0,.49,0,.8s0,.51,0,1-.06,1-.16,1.82-.22,1.46-.39,2.32c-.12.62-.18.95-.3,1.43-.24,1-.48,1.72-.62,2.17-.32,1-.62,1.74-.74,2-.34.83-.64,1.47-.76,1.74-.58,1.22-1.12,2.16-1.4,2.62-.42.72-.8,1.28-1,1.6s-.48.69-.64.9c-.31.42-.74,1-1.28,1.64-.25.3-.58.69-1,1.14s-.88.95-1.57,1.6c-.28.27-.8.75-1.47,1.32-.44.37-1.25,1-2.32,1.78-.53.37-1,.67-1.34.88Z"/><path class="cls-4" d="M45.31,403.37a28.07,28.07,0,0,0-7.42,1,19.83,19.83,0,0,0-9.88,5.8,25.66,25.66,0,0,0-6.47,12.5,22.13,22.13,0,0,0,9.32-.51c10.2-2.84,14.54-12.26,15.17-13.69a20,20,0,0,0,1.3-3.55c.23-1.53.46-1.2-1.15-1.43C45.9,403.41,45.61,403.39,45.31,403.37Z"/><path class="cls-5" d="M21.54,422.63c1-.63,2-1.27,3.07-1.93L27,419.16s7.52-5,14.27-10.33c2.41-1.91,4.6-3.78,4.6-3.78l1.59-1.38a.46.46,0,0,1,.06.24.8.8,0,0,1,0,.11c0,.2-.07.48-.16.89a12.76,12.76,0,0,1-.5,1.63c-.21.55-.22.46-.63,1.49-.14.32-.2.49-.34.79s-.23.49-.47.95-.5.94-.94,1.65-.83,1.24-1.35,1.95c-.37.51-.57.78-.88,1.16-.62.77-1.15,1.31-1.46,1.63a20.52,20.52,0,0,1-1.52,1.42c-.64.56-1.17.95-1.39,1.12a24.23,24.23,0,0,1-2.3,1.49c-.67.37-1.22.63-1.54.78l-.93.4c-.43.17-1,.4-1.77.62-.33.1-.78.23-1.32.35s-1.15.25-2,.37c-.36.05-1,.12-1.8.16a22.17,22.17,0,0,1-2.69,0c-.6,0-1.11-.1-1.49-.15Z"/><path class="cls-4" d="M112.65,338.67a32.63,32.63,0,0,1-4.72,7.12A22.67,22.67,0,0,1,97,353a29.4,29.4,0,0,1-16.1.34A25.33,25.33,0,0,1,86.11,344c8.07-9,19.93-8.73,21.71-8.66a23.6,23.6,0,0,1,4.31.46c1.68.54,1.46.13.88,1.91A9.84,9.84,0,0,1,112.65,338.67Z"/><path class="cls-5" d="M80.88,353.34c1.16-.73,2.33-1.45,3.53-2.18l2.78-1.65s8.89-5.2,17.81-9.43c3.17-1.5,6.2-2.8,6.2-2.8.92-.4,1.69-.72,2.22-.94a.52.52,0,0,0-.22-.18l-.12-.05c-.23-.05-.53-.17-1-.29a15.32,15.32,0,0,0-1.92-.31c-.67-.06-.58,0-1.84-.09-.4,0-.61-.05-1-.06s-.62,0-1.22,0-1.22,0-2.17.13-1.69.23-2.68.4c-.7.13-1.09.19-1.63.32a25.1,25.1,0,0,0-2.42.68c-1.09.36-1.9.7-2.22.83-.9.38-1.57.72-1.85.87a25.93,25.93,0,0,0-2.69,1.61c-.72.5-1.27.93-1.58,1.19s-.67.56-.88.74c-.4.36-.93.87-1.53,1.51-.27.29-.63.69-1,1.18a22.55,22.55,0,0,0-1.38,1.86c-.23.34-.63,1-1.08,1.76a25,25,0,0,0-1.33,2.77c-.26.64-.46,1.19-.6,1.6Z"/><path class="cls-4" d="M77.63,395.58a36.07,36.07,0,0,1-7.94-1.39,24.64,24.64,0,0,1-10.71-6,25.38,25.38,0,0,1-7.26-11.87,28.15,28.15,0,0,1,10,1.11A28.57,28.57,0,0,1,78.26,391a18.58,18.58,0,0,1,1.49,3.34c.29,1.41.52,1.13-1.19,1.22C78.26,395.58,78,395.58,77.63,395.58Z"/><path class="cls-5" d="M51.72,376.34q1.65,1,3.33,2c.87.52,1.73,1.05,2.57,1.57,0,0,8.16,5.05,15.52,10.42,2.62,1.91,5,3.77,5,3.77l1.74,1.37a.41.41,0,0,0,.06-.22l0-.1c-.06-.19-.08-.45-.19-.83a10.77,10.77,0,0,0-.58-1.52c-.24-.52-.24-.44-.72-1.4-.15-.3-.22-.46-.38-.75s-.25-.46-.53-.9-.56-.9-1-1.57-.92-1.19-1.5-1.88c-.41-.48-.63-.75-1-1.12-.69-.74-1.26-1.28-1.61-1.59-.77-.7-1.4-1.2-1.65-1.4-.7-.55-1.28-.95-1.52-1.12-1.11-.75-2-1.26-2.5-1.52-.72-.38-1.32-.66-1.67-.82l-1-.42c-.47-.19-1.13-.44-1.92-.69-.35-.12-.84-.27-1.42-.42s-1.23-.3-2.14-.47c-.38-.07-1.06-.18-1.92-.27a26.26,26.26,0,0,0-2.87-.16c-.64,0-1.18,0-1.58,0Z"/><path class="cls-4" d="M42.68,401.93a19,19,0,0,1-4.57-2.31,13.57,13.57,0,0,1-5.07-6,17.52,17.52,0,0,1-1.33-9.55,15.37,15.37,0,0,1,5.91,2.45c6,4.17,6.6,11.25,6.68,12.31a14.15,14.15,0,0,1,0,2.6c-.2,1,0,.88-1.07.66Z"/><path class="cls-5" d="M31.71,384.06c.51.63,1,1.28,1.54,1.95l1.18,1.53s3.73,4.93,6.87,9.94c1.12,1.78,2.11,3.49,2.11,3.49.3.52.54,1,.71,1.26a.35.35,0,0,0,.09-.15.17.17,0,0,0,0-.08c0-.13.07-.32.11-.61a9.18,9.18,0,0,0,0-1.16c0-.41,0-.35-.07-1.11,0-.23,0-.36,0-.58s0-.37-.09-.73-.11-.72-.23-1.28-.26-1-.43-1.57c-.12-.41-.19-.63-.3-.95-.23-.64-.45-1.11-.58-1.39-.29-.62-.55-1.08-.65-1.26-.29-.51-.54-.88-.65-1a15,15,0,0,0-1.15-1.49c-.34-.39-.64-.69-.82-.86s-.38-.35-.5-.46a11.33,11.33,0,0,0-1-.81c-.19-.14-.45-.33-.77-.53s-.68-.42-1.21-.69a12.14,12.14,0,0,0-1.12-.52,16,16,0,0,0-1.74-.6c-.4-.11-.74-.19-1-.24Z"/><path class="cls-4" d="M23.56,394.65a24,24,0,0,1-4.36-4.16,16.53,16.53,0,0,1-3.79-8.42,20.35,20.35,0,0,1,1.43-11,18.3,18.3,0,0,1,5.8,4.79c5.33,6.7,3.9,14.75,3.66,16a15.23,15.23,0,0,1-.75,2.88c-.54,1.08-.24,1-1.39.35C24,394.91,23.76,394.78,23.56,394.65Z"/><path class="cls-5" d="M16.84,371c.38.88.75,1.78,1.12,2.69.29.71.57,1.42.84,2.11,0,0,2.63,6.76,4.59,13.4.7,2.37,1.27,4.61,1.27,4.61.18.68.32,1.24.41,1.63a.49.49,0,0,0,.15-.12.54.54,0,0,0,0-.08c.06-.15.18-.34.3-.64a11.17,11.17,0,0,0,.41-1.27c.11-.46.07-.4.25-1.25.06-.26.1-.41.14-.66a8.24,8.24,0,0,0,.13-.83c0-.34.1-.84.13-1.5s0-1.18,0-1.88c0-.5,0-.77-.05-1.16-.06-.79-.16-1.38-.22-1.74-.13-.79-.27-1.39-.33-1.63-.17-.66-.33-1.16-.41-1.37a18.62,18.62,0,0,0-.82-2.05c-.26-.56-.5-1-.64-1.24s-.31-.52-.42-.69-.49-.75-.87-1.25c-.17-.22-.4-.51-.69-.85s-.63-.71-1.13-1.19c-.21-.2-.59-.56-1.09-1a20,20,0,0,0-1.75-1.27c-.41-.26-.76-.47-1-.62Z"/><path class="cls-4" d="M20.71,395.08a18.73,18.73,0,0,0-4.82.62,13,13,0,0,0-6.43,3.78,16.73,16.73,0,0,0-4.21,8.13,14.28,14.28,0,0,0,6.06-.33c6.64-1.85,9.46-8,9.87-8.9a12.7,12.7,0,0,0,.85-2.32c.15-1,.3-.78-.75-.92A5,5,0,0,0,20.71,395.08Z"/><path class="cls-5" d="M5.25,407.61c.66-.41,1.33-.82,2-1.26l1.54-1s4.89-3.23,9.28-6.72c1.57-1.24,3-2.46,3-2.46.44-.37.79-.68,1-.9a.57.57,0,0,1,0,.16v.08c0,.13-.05.31-.1.58a8,8,0,0,1-.33,1.05c-.14.36-.14.31-.41,1-.09.21-.13.32-.22.52s-.15.32-.31.62-.32.61-.61,1.07-.54.81-.88,1.27-.37.5-.57.75c-.4.5-.75.86-.95,1.07-.46.46-.84.79-1,.92-.42.36-.76.62-.91.73a14,14,0,0,1-1.49,1c-.44.25-.8.42-1,.51s-.46.2-.6.26-.68.26-1.16.41l-.86.23c-.29.06-.74.16-1.29.23-.24,0-.65.08-1.17.11a13.15,13.15,0,0,1-1.75,0c-.39,0-.72-.06-1-.09Z"/><path class="cls-4" d="M104.39,268.1a29,29,0,0,0,3.7,6.75,20.43,20.43,0,0,0,9.28,7.3,26.49,26.49,0,0,0,14.42,1.51,22.78,22.78,0,0,0-4-8.75c-6.56-8.72-17.23-9.33-18.83-9.4a21.11,21.11,0,0,0-3.9.09c-1.55.35-1.32,0-.93,1.64A7.51,7.51,0,0,0,104.39,268.1Z"/><path class="cls-5" d="M131.79,283.66q-1.47-1.11-3-2.22c-.8-.57-1.58-1.14-2.37-1.69,0,0-7.58-5.34-15.27-9.8-2.74-1.59-5.36-3-5.36-3l-1.92-1a.63.63,0,0,1,.21-.14.25.25,0,0,1,.12,0c.21,0,.48-.12.91-.19a13.13,13.13,0,0,1,1.75-.13c.61,0,.52,0,1.66.05.36,0,.55,0,.89,0s.55,0,1.09.1,1.09.12,1.93.28,1.5.33,2.38.56c.62.16,1,.25,1.44.4a21.71,21.71,0,0,1,2.12.8c.95.4,1.65.77,1.93.91.78.41,1.35.77,1.6.92a23.78,23.78,0,0,1,2.29,1.65c.61.5,1.07.93,1.33,1.18s.56.56.73.74c.33.35.77.85,1.26,1.47.22.28.51.66.84,1.13s.67,1,1.1,1.78c.18.32.49.9.83,1.66a23.72,23.72,0,0,1,1,2.59c.18.59.32,1.1.41,1.48Z"/><path class="cls-4" d="M78.42,233.28A34.74,34.74,0,0,0,85,239.79,24.37,24.37,0,0,0,98.09,245a31.67,31.67,0,0,0,17.09-3.13,27.26,27.26,0,0,0-7.54-8.7c-10.48-7.81-23-4.92-24.82-4.46a25.48,25.48,0,0,0-4.46,1.42c-1.66.93-1.51.46-.51,2.2A9.81,9.81,0,0,0,78.42,233.28Z"/><path class="cls-5" d="M115.18,241.91c-1.38-.51-2.78-1-4.2-1.53l-3.29-1.15s-10.53-3.58-20.87-6.11c-3.68-.9-7.16-1.62-7.16-1.62L77.11,231a.62.62,0,0,1,.19-.23l.12-.08c.23-.1.52-.3,1-.52a15.08,15.08,0,0,1,2-.74c.7-.21.62-.14,1.93-.5l1-.28c.27-.06.65-.15,1.29-.26s1.29-.22,2.31-.33,1.84-.13,2.93-.16c.77,0,1.18,0,1.79,0,1.22,0,2.15.14,2.7.2,1.23.14,2.16.33,2.53.4,1,.21,1.81.43,2.15.52a29.09,29.09,0,0,1,3.19,1.12c.86.37,1.54.71,1.93.91l1.08.6c.5.29,1.18.71,2,1.26.35.25.81.59,1.34,1a24.24,24.24,0,0,1,1.86,1.66c.32.32.88.88,1.52,1.63a27.63,27.63,0,0,1,2,2.64c.42.62.74,1.16,1,1.57Z"/><path class="cls-4" d="M64.94,207.62a34.74,34.74,0,0,0,6.54,6.51,24.45,24.45,0,0,0,13.13,5.25,31.69,31.69,0,0,0,17.09-3.13,27.39,27.39,0,0,0-7.54-8.7c-10.49-7.82-23-4.92-24.82-4.46a25.48,25.48,0,0,0-4.46,1.42c-1.66.93-1.52.45-.52,2.2C64.54,207,64.73,207.32,64.94,207.62Z"/><path class="cls-5" d="M101.7,216.25c-1.38-.51-2.78-1-4.21-1.53-1.1-.4-2.2-.78-3.29-1.15,0,0-10.52-3.58-20.86-6.11-3.68-.9-7.17-1.63-7.17-1.63l-2.55-.51a1,1,0,0,1,.2-.24l.12-.07c.23-.11.52-.3,1-.52a15.58,15.58,0,0,1,2-.74c.7-.21.62-.14,1.93-.51l1-.27c.27-.06.66-.15,1.3-.26s1.29-.22,2.31-.33,1.83-.13,2.92-.16c.77,0,1.19,0,1.8,0,1.22,0,2.15.14,2.7.2,1.23.14,2.16.33,2.53.4,1,.21,1.81.42,2.14.52a25.76,25.76,0,0,1,3.19,1.12c.87.37,1.55.71,1.93.91s.83.45,1.09.6c.5.29,1.17.71,2,1.26.34.25.81.59,1.34,1s1.11.93,1.86,1.67c.32.32.87.88,1.52,1.63a27.63,27.63,0,0,1,2,2.64c.41.62.74,1.16,1,1.56Z"/><path class="cls-4" d="M60.26,181.47A37.08,37.08,0,0,0,67,188.11a25.87,25.87,0,0,0,13.38,5.5,31.77,31.77,0,0,0,17.24-2.82,28.84,28.84,0,0,0-7.8-8.86c-10.74-8-23.31-5.34-25.19-4.91a24.45,24.45,0,0,0-4.48,1.34c-1.67.9-1.53.42-.49,2.19C59.84,180.86,60,181.17,60.26,181.47Z"/><path class="cls-5" d="M97.61,190.79c-1.41-.55-2.83-1.08-4.29-1.62L90,188s-10.71-3.78-21.22-6.5c-3.74-1-7.28-1.76-7.28-1.76l-2.59-.56a.64.64,0,0,1,.19-.24l.13-.07c.23-.1.51-.29,1-.51a16.17,16.17,0,0,1,2-.7c.7-.2.62-.13,1.94-.47.41-.1.63-.17,1-.25s.66-.14,1.3-.24,1.31-.2,2.34-.29,1.85-.09,3-.1c.77,0,1.2,0,1.81,0a26.62,26.62,0,0,1,2.74.25c1.24.16,2.19.36,2.57.44,1,.23,1.83.46,2.17.56a30.07,30.07,0,0,1,3.25,1.18c.89.39,1.58.74,2,.95l1.11.62c.51.3,1.2.73,2,1.3.36.25.84.61,1.38,1s1.14.94,1.92,1.7c.32.32.9.89,1.56,1.66a26.37,26.37,0,0,1,2.08,2.68c.43.63.77,1.17,1,1.58Z"/><path class="cls-4" d="M49.27,126a29,29,0,0,0,.36,7.69,20.39,20.39,0,0,0,5.12,10.64A26.38,26.38,0,0,0,67,152a22.77,22.77,0,0,0,.27-9.61c-2-10.72-11.36-16-12.77-16.73A20.57,20.57,0,0,0,51,124c-1.55-.37-1.19-.58-1.56,1.06C49.37,125.38,49.32,125.68,49.27,126Z"/><path class="cls-5" d="M67,152c-.56-1.09-1.13-2.19-1.72-3.31-.46-.87-.92-1.72-1.38-2.56,0,0-4.46-8.14-9.39-15.53-1.76-2.63-3.5-5-3.5-5-.53-.73-1-1.34-1.28-1.75a.6.6,0,0,1,.25,0l.12,0c.2.06.49.1.9.23a14.33,14.33,0,0,1,1.63.65c.55.27.46.26,1.47.78.32.16.49.24.78.41s.49.28,1,.57.92.59,1.61,1.1,1.2.95,1.89,1.55c.48.42.75.65,1.11,1A20.38,20.38,0,0,1,62,131.76a21.19,21.19,0,0,1,1.33,1.67c.52.71.88,1.28,1,1.53a22.61,22.61,0,0,1,1.33,2.48c.33.72.55,1.31.68,1.65s.25.74.33,1c.14.47.32,1.11.48,1.88.08.35.17.82.25,1.39s.16,1.19.21,2.07c0,.37,0,1,0,1.86a23.83,23.83,0,0,1-.26,2.76c-.09.61-.19,1.13-.28,1.51Z"/><path class="cls-4" d="M50.42,114.44a49,49,0,0,1-5.35,9.73,33.52,33.52,0,0,1-12.66,11.21,35.17,35.17,0,0,1-18.9,4,37.77,37.77,0,0,1,5.88-12.5c9.22-12.81,23.17-15.06,25.26-15.36,1.6-.13,3.56-.61,5.08-.4,2,.28,1.72-.16,1.08,2.13C50.7,113.62,50.57,114,50.42,114.44Z"/><path class="cls-5" d="M13.51,139.35c1.33-1.14,2.7-2.28,4.09-3.43,1.07-.89,2.15-1.77,3.21-2.63,0,0,10.3-8.31,20.66-15.43,3.69-2.54,7.21-4.8,7.21-4.8l2.58-1.64a.69.69,0,0,0-.26-.17l-.15,0c-.27,0-.62-.11-1.18-.14a16,16,0,0,0-2.26,0c-.8.07-.69.12-2.17.29-.47,0-.72.08-1.16.15s-.73.12-1.43.27-1.43.31-2.54.64-2,.64-3.15,1.08c-.82.3-1.26.47-1.9.74-1.3.56-2.26,1.07-2.83,1.37-1.26.68-2.21,1.27-2.58,1.51-1,.66-1.82,1.22-2.15,1.47a35.52,35.52,0,0,0-3.12,2.56c-.83.76-1.46,1.41-1.82,1.79s-.77.83-1,1.11c-.46.52-1.07,1.26-1.76,2.17-.31.42-.72,1-1.17,1.67s-.95,1.46-1.57,2.57c-.26.47-.72,1.31-1.22,2.39a39,39,0,0,0-1.48,3.67c-.29.84-.51,1.55-.66,2.08Z"/><path class="cls-4" d="M99.07,61.27a47.13,47.13,0,0,0,1.65,9.6A31.85,31.85,0,0,0,107.63,84a30,30,0,0,0,13.56,9.11,36.24,36.24,0,0,0-1.36-12,35.63,35.63,0,0,0-15.57-20.37,21.82,21.82,0,0,0-3.81-1.9c-1.61-.39-1.29-.67-1.38,1.39C99.06,60.51,99.06,60.88,99.07,61.27Z"/><path class="cls-5" d="M121.19,93.06c-.74-1.35-1.5-2.7-2.28-4.07-.61-1.06-1.21-2.11-1.81-3.14,0,0-5.83-10-12-19-2.2-3.22-4.34-6.15-4.34-6.15-.65-.9-1.2-1.63-1.58-2.14a.54.54,0,0,1,.25-.06l.12,0c.22.07.51.11.94.25a11.91,11.91,0,0,1,1.73.75c.6.3.5.3,1.6.91.35.18.53.28.86.47s.53.33,1,.67,1,.7,1.79,1.31,1.36,1.15,2.15,1.86c.56.51.86.78,1.28,1.2.86.86,1.47,1.57,1.83,2,.8.95,1.38,1.73,1.61,2,.63.86,1.09,1.56,1.28,1.86.87,1.36,1.46,2.49,1.75,3.06.45.88.77,1.61.95,2s.38.91.5,1.21c.22.57.51,1.36.8,2.32.14.44.31,1,.49,1.73s.36,1.48.55,2.58c.09.47.22,1.29.34,2.33.07.67.19,1.9.21,3.46,0,.77,0,1.42,0,1.9Z"/><line class="cls-1" x1="78.31" y1="77.83" x2="77.58" y2="71.11"/><path class="cls-4" d="M77.18,77.73a29,29,0,0,0-1.77,7.5,20.32,20.32,0,0,0,2,11.63,26.35,26.35,0,0,0,9.68,10.79A22.83,22.83,0,0,0,90,98.48c1-10.86-6.52-18.47-7.67-19.6a20.83,20.83,0,0,0-2.95-2.55c-1.39-.77-1-.88-1.79.6C77.44,77.18,77.31,77.45,77.18,77.73Z"/><path class="cls-5" d="M87.09,107.65c-.23-1.2-.48-2.42-.74-3.66-.21-1-.41-1.9-.63-2.84,0,0-2-9.05-4.76-17.51-1-3-2-5.81-2-5.81l-.75-2a.71.71,0,0,1,.26,0l.1,0c.18.12.44.24.8.47a13,13,0,0,1,1.39,1.08c.45.41.37.38,1.2,1.15.26.24.4.37.64.61s.39.4.75.81.72.82,1.24,1.5.9,1.25,1.39,2c.36.54.55.83.8,1.27a20.19,20.19,0,0,1,1,2c.44.93.71,1.67.82,2,.3.82.49,1.47.57,1.75a21.71,21.71,0,0,1,.59,2.76c.12.78.17,1.41.2,1.77s0,.78,0,1c0,.49,0,1.15,0,1.94,0,.36-.07.84-.14,1.41s-.18,1.19-.38,2c-.08.36-.24,1-.49,1.79a22,22,0,0,1-1,2.58c-.26.57-.5,1-.69,1.38Z"/></g></g></svg>